<svg version="1.1" id="Layer_1" xmlns="http://www.w3.org/2000/svg" xmlns:xlink="http://www.w3.org/1999/xlink" x="0px" y="0px"
	 width="100%" viewBox="0 0 272 272" enable-background="new 0 0 272 272" xml:space="preserve">
<!-- Brand background -->
<rect width="272" height="272" rx="48" fill="#1A1208"/>
<path fill="#B8860B" opacity="1.000000" stroke="none"
	d="
M176.601868,187.365692
	C168.677963,203.046600 156.174484,210.903244 139.031921,210.189484
	C123.544891,209.544662 112.456596,201.484924 105.753662,187.593933
	C102.742973,181.354645 101.881676,174.501938 101.814270,167.671509
	C101.646759,150.693909 101.512512,133.707962 101.878639,116.736443
	C102.067513,107.981346 102.730850,99.226357 107.150658,91.125587
	C115.714149,75.430107 133.754517,70.141998 146.522369,72.052795
	C163.875977,74.649887 176.373337,86.772758 179.297211,103.189163
	C179.849121,106.287949 180.261963,109.458580 180.276566,112.598213
	C180.361771,130.909164 180.329575,149.220810 180.292328,167.532120
	C180.278717,174.229691 179.368225,180.787430 176.601868,187.365692
M112.949257,143.451324
	C112.332504,155.768692 111.940727,168.066055 113.216560,180.390579
	C114.067062,188.606476 117.971748,194.919800 124.299904,199.720520
	C133.376373,206.606216 143.378677,207.290939 153.490189,202.357269
	C164.461655,197.004044 169.557526,187.616257 169.645233,175.663376
	C169.812775,152.831909 169.775024,129.997543 169.603760,107.166023
	C169.562759,101.699333 168.804184,96.223999 165.960754,91.287628
	C159.288300,79.703812 147.237167,74.436768 134.068604,77.419785
	C122.168396,80.115494 113.527496,90.343933 113.280586,103.565742
	C113.038338,116.538483 111.996162,129.521042 112.949257,143.451324
z"/>
<path fill="#B8860B" opacity="1.000000" stroke="none"
	d="
M138.782135,133.193466
	C144.988617,136.821060 151.147186,139.821503 156.563400,144.047531
	C164.145447,149.963470 168.052246,157.700531 168.152710,167.324966
	C168.171600,169.134079 168.359756,171.030884 166.613785,172.596130
	C166.119263,172.295685 165.372070,172.100876 165.080444,171.626221
	C159.497528,162.538528 150.606750,157.633575 141.591888,152.833862
	C135.266205,149.465897 128.983948,145.996094 123.908234,140.777390
	C116.363907,133.020538 113.453751,123.574516 113.830093,112.957726
	C113.882202,111.487617 113.954353,109.929649 116.127243,108.320038
	C118.556351,113.578697 120.702026,118.919853 124.799866,123.012924
	C128.855667,127.064011 133.544830,130.178452 138.782135,133.193466
z"/>
</svg>
